<svg width="93" height="12" viewBox="0 0 93 12" fill="none" xmlns="http://www.w3.org/2000/svg">
<path id="Vector" d="M12.8629 5.9788C12.8629 2.71378 15.8074 0.0706714 19.4958 0.0706714C23.2151 0.0706714 26.1596 2.71378 26.1596 5.9788C26.1596 9.21555 23.2151 11.9152 19.4958 11.9152C15.8074 11.9011 12.8629 9.21555 12.8629 5.9788ZM22.9672 5.9788C22.9672 4.33923 21.4174 2.91166 19.4958 2.91166C17.6051 2.91166 16.0398 4.35336 16.0398 5.9788C16.0398 7.63251 17.5896 9.07421 19.4958 9.07421C21.4174 9.07421 22.9672 7.63251 22.9672 5.9788ZM79.7652 6.07774C79.7652 2.50177 82.9577 0.0706714 85.8557 0.0706714C87.8239 0.0706714 88.9552 0.621907 89.73 1.68198L90.04 0.282686H93V11.689H90.04L89.6526 10.5159C88.7847 11.3781 87.6999 11.9152 85.8557 11.9152C83.0042 11.9011 79.7652 9.62544 79.7652 6.07774ZM89.885 6.04947C89.885 4.32509 88.3198 2.91166 86.4291 2.91166C84.5229 2.91166 82.9732 4.33922 82.9732 6.0636V6.07774C82.9732 7.66078 84.5229 9.07421 86.4291 9.07421C88.3198 9.07421 89.885 7.66078 89.885 6.04947ZM76.1233 1.61131V0.296821H72.8844V11.7032H76.1233V5.55477C76.1233 3.70318 77.1306 2.74205 78.8664 2.74205C78.9748 2.74205 79.0833 2.75618 79.1918 2.75618L79.7962 0C78.107 0 76.8827 0.537102 76.1233 1.61131ZM43.5942 1.61131V0.296821H40.3553L40.3863 11.7032H43.6252L43.6097 5.55477C43.6097 3.70318 44.6016 2.74205 46.3373 2.74205C46.4458 2.74205 46.5542 2.74205 46.6627 2.75618L47.2671 0C45.5624 0 44.3381 0.537102 43.5942 1.61131ZM27.2755 7.27915V0.296821H30.5144V6.9258C30.5144 8.39576 31.4133 9.25795 32.963 9.25795C34.6987 9.25795 35.7061 8.29682 35.7061 6.44523V0.296821H38.945V11.7032H35.7061V10.3887C34.9467 11.4629 33.7069 12 31.9867 12C29.0887 11.9859 27.2755 10.0636 27.2755 7.27915ZM58.8127 5.99293C58.8127 2.79859 61.3233 0.0706714 65.3061 0.0706714C68.9945 0.0706714 71.5981 2.77032 71.5826 5.95053C71.5826 6.26149 71.5516 6.57244 71.5051 6.88339L61.9742 6.86926C62.3461 8.24028 63.5704 9.22968 65.4456 9.22968C66.5769 9.22968 67.7857 8.84806 68.5296 7.98587L70.7457 9.59717C69.6144 11.0671 67.5997 11.9152 65.4766 11.9152C61.6952 11.9011 58.7972 9.32862 58.8127 5.99293ZM68.3126 4.80565C68.1266 3.64664 66.8094 2.75618 65.2596 2.75618C63.7564 2.75618 62.5476 3.56184 62.0672 4.79152L68.3126 4.80565ZM47.2826 9.20141L50.1651 7.83039C50.6456 8.77738 51.5909 9.32862 52.9392 9.32862C54.179 9.32862 54.6594 8.96113 54.6594 8.46643C54.6594 6.62897 47.8405 7.74558 47.8405 3.5477C47.8405 1.22968 50.0567 0 52.8152 0C54.9073 0 56.7515 0.848057 57.7589 2.41696L54.9073 3.78799C54.4889 3.0106 53.6986 2.58658 52.6912 2.58658C51.7149 2.58658 51.2345 2.89753 51.2345 3.43463C51.2345 5.21555 58.0533 4.08481 58.0533 8.35336C58.0533 10.5724 56.0697 11.9152 52.8772 11.9152C50.1341 11.9011 48.228 11.0813 47.2826 9.20141ZM0 5.9788C0 2.68552 2.94451 0.0424054 6.63289 0.0424054C8.88002 0.0282711 10.9877 1.04594 12.243 2.75618L9.48442 4.21202C8.83353 3.36396 7.7797 2.86926 6.64839 2.86926C4.75771 2.86926 3.19247 4.31096 3.19247 5.96467C3.19247 7.61838 4.74221 9.06007 6.64839 9.06007C7.84169 9.06007 8.94201 8.50884 9.5774 7.59011L12.3204 9.07421C11.0807 10.8269 8.94201 11.9011 6.66389 11.8869C2.94451 11.9011 0 9.21555 0 5.9788Z" fill="#0056D2"/>
</svg>
