<svg width="56" height="42" viewBox="0 0 56 42" fill="none" xmlns="http://www.w3.org/2000/svg">
<g id="Udemy New 2021 2">
<path id="Vector" d="M12.789 16.653L9.352 14.672L5.922 16.653V14.672L9.352 12.691L12.789 14.672V16.653Z" fill="#A435F0"/>
<path id="Vector_2" d="M5.922 18.319H7.721V22.687C7.721 23.814 8.561 24.367 9.359 24.367C10.157 24.367 10.997 23.8 10.997 22.673V18.319H12.796V22.792C12.796 23.835 12.467 24.633 11.816 25.186C11.165 25.739 10.346 26.005 9.345 26.005C8.351 26.005 7.532 25.739 6.895 25.186C6.258 24.633 5.929 23.863 5.929 22.841C5.922 22.841 5.922 18.319 5.922 18.319ZM28.336 23.751C27.79 24.234 27.174 24.472 26.467 24.472C25.179 24.472 24.311 23.737 24.213 22.596H30.023C30.023 22.596 30.065 22.225 30.065 21.882C30.065 20.811 29.722 19.922 29.022 19.194C28.336 18.466 27.447 18.109 26.362 18.109C25.221 18.109 24.283 18.466 23.541 19.194C22.813 19.922 22.442 20.874 22.442 22.064V22.12C22.442 23.296 22.813 24.234 23.541 24.927C24.269 25.627 25.235 25.984 26.411 25.984C27.776 25.984 28.861 25.445 29.68 24.514C29.673 24.521 28.336 23.751 28.336 23.751ZM24.92 20.104C25.319 19.789 25.809 19.628 26.362 19.628C26.88 19.628 27.314 19.789 27.685 20.118C28.042 20.419 28.231 20.783 28.245 21.203H24.255C24.311 20.769 24.535 20.405 24.92 20.104ZM46.438 26.999C45.71 28.721 44.947 29.309 43.771 29.309H42.959V27.713H43.617C44.023 27.713 44.394 27.559 44.751 26.74L45.108 25.914L42.028 18.319H43.855L46.039 23.786L48.286 18.319H50.12L46.438 26.999ZM19.789 15.449V18.998C19.201 18.473 18.284 18.158 17.395 18.158C16.338 18.158 15.449 18.529 14.721 19.285C14.007 20.027 13.65 20.951 13.65 22.064C13.65 23.177 14.007 24.101 14.721 24.857C15.449 25.599 16.338 25.97 17.395 25.97C18.613 25.97 19.383 25.494 19.789 25.116V25.809H21.574V15.449H19.789ZM19.25 23.702C18.816 24.136 18.27 24.353 17.633 24.353C16.996 24.353 16.471 24.129 16.044 23.702C15.631 23.268 15.421 22.722 15.421 22.064C15.421 21.413 15.631 20.86 16.044 20.426C16.478 19.992 16.996 19.775 17.633 19.775C18.27 19.775 18.823 19.999 19.25 20.426C19.698 20.86 19.922 21.406 19.922 22.064C19.922 22.722 19.698 23.268 19.25 23.702ZM39.263 18.172C37.905 18.172 37.205 18.732 36.722 19.278C36.526 18.907 35.987 18.172 34.713 18.172C33.642 18.172 33.005 18.711 32.69 19.103V18.326H30.919V25.816H32.69V21.504C32.69 20.496 33.313 19.768 34.146 19.768C34.993 19.768 35.483 20.405 35.483 21.434V25.816H37.254V21.504C37.254 20.482 37.863 19.768 38.738 19.768C39.585 19.768 40.075 20.405 40.075 21.434V25.816H41.86V21.182C41.86 19.222 40.81 18.172 39.263 18.172Z" fill="black"/>
</g>
</svg>
