<svg width="170" height="170" viewBox="0 0 170 170" fill="none" xmlns="http://www.w3.org/2000/svg">
<g id="base">
<path id="Vector" d="M85.175 169.525C131.857 169.525 169.7 131.682 169.7 85C169.7 38.3181 131.857 0.474976 85.175 0.474976C38.4931 0.474976 0.649994 38.3181 0.649994 85C0.649994 131.682 38.4931 169.525 85.175 169.525Z" fill="#E1F5FE"/>
<path id="Vector_2" d="M85.175 5.72498C104.761 5.75214 123.638 13.0527 138.146 26.2107C152.653 39.3686 161.757 57.4458 163.691 76.9359C165.624 96.4259 160.25 115.939 148.61 131.691C136.971 147.443 119.896 158.311 100.697 162.185C81.4983 166.06 61.5448 162.666 44.7069 152.662C27.869 142.658 15.3469 126.756 9.56976 108.042C3.79257 89.3275 5.17204 69.1345 13.4406 51.3797C21.7091 33.625 36.2773 19.574 54.3193 11.9525C64.0808 7.82184 74.5755 5.70371 85.175 5.72498ZM85.175 0.474976C38.493 0.474976 0.649994 38.318 0.649994 85C0.649994 131.682 38.493 169.525 85.175 169.525C131.857 169.525 169.7 131.682 169.7 85C169.7 38.318 131.857 0.474976 85.175 0.474976Z" fill="white"/>
</g>
</svg>
